<svg id="Layer_1" data-name="Layer 1" xmlns="http://www.w3.org/2000/svg" width="54.15mm" height="134.9mm" viewBox="0 0 153.5 382.4"><title>Artboard 1</title><path d="M57.78,97.13a8.31,8.31,0,0,1-4.68,8c-2,.91-4.15.89-5.43-2.1-2.92-6.83-7.9-96.72-7.9-96.72l-.6,93.47a5.92,5.92,0,0,1-.28,1.78c-2.74,4-5.48,4.14-7.53,3.29-.15-.06-.29-.15-.44-.22a9.42,9.42,0,0,1-2.1-2,6,6,0,0,1-.88-3.11l-.6-93.47s-5,89.88-7.9,96.71c-1.28,3-3.42,3-5.43,2.1a8.29,8.29,0,0,1-4.68-8L14.57,5.48S1.43,99.73,2.4,109.5s23.12,28,23.12,28,2.31,8.05,4.26,69.54S19.1,313,24,353.06c2.14,17.55,4.89,23.69,7.3,25.05a3.07,3.07,0,0,0,4.27.41c2.48-1,5.36-7,7.58-25.2,4.88-40-7.75-84.54-5.8-146s4.26-69.55,4.26-69.55,22.14-18.22,23.12-28-12.17-104-12.17-104Z"/><path d="M148.85,344.44c-1-22.54-3.35-29.55-3.93-44.61-1.26-32.65-1.74-51.26-1.74-51.26L140.5,12.15a3.55,3.55,0,0,1,0-.46c2.78-22.67-15,6.41-20,19.21-2.34,6-2.31,5.51-3,8.42-5.87,23.56-27.31,136.78-5,137.06,24.13.31,21.25,32.53,21,34.54a1.41,1.41,0,0,0,0,.2l-6.47,133.21s-.34,27.42,9.52,34.67a3.28,3.28,0,0,0,4.35-.46C144.06,375.12,149.76,365.89,148.85,344.44Z"/></svg>
