<svg id="Layer_1" data-name="Layer 1" xmlns="http://www.w3.org/2000/svg" width="187.56mm" height="95.09mm" viewBox="0 0 531.67 269.54"><defs><style>.cls-1{fill:#af1917;}.cls-2{font-size:100px;font-family:DancingScript-Regular, Dancing Script;}.cls-2,.cls-6,.cls-8{fill:#1d1d1b;}.cls-3{letter-spacing:-0.09em;}.cls-4{letter-spacing:0em;}.cls-5{letter-spacing:-0.03em;}.cls-7{fill:none;stroke:#1d1d1b;stroke-miterlimit:10;stroke-width:1.8px;}.cls-8{font-size:32.84px;font-family:NunitoSans-ExtraLight, Nunito Sans;font-weight:200;}.cls-9{letter-spacing:-0.01em;}.cls-10{letter-spacing:0em;}.cls-11{letter-spacing:0em;}.cls-12{letter-spacing:-0.01em;}</style></defs><title>logo4</title><rect class="cls-1" x="3.7" y="195.2" width="523.45" height="5.3"/><text class="cls-2" transform="translate(26.89 182.16)"><tspan class="cls-3">T</tspan><tspan class="cls-4" x="40.4" y="0">aste of </tspan><tspan class="cls-5" x="299.99" y="0">I</tspan><tspan x="343.19" y="0">taly</tspan></text><path class="cls-6" d="M401.64,7s-3.34-7.2,9.12,1.69,21.7,23.84,39.42,39.05,20.57,16.63,20.57,16.63,10.78-1.53,13.76.69,26,30.07,26,30.07L486.28,70.23a3.14,3.14,0,0,0-3.45-.75,1.38,1.38,0,0,0-.81,2.06c1.17,2.57,25.07,27,25.07,27L480.75,74.75a2.18,2.18,0,0,0-2.37-.4c-.76.35-1.42,1.16-1,3s-15.47-15-33.05-31.6C424.06,26.55,401.64,7,401.64,7Z"/><path class="cls-6" d="M403.29,5.05s-7.47-2.69,2.49,8.93,25.67,19.49,42.39,35.8,18.39,19,18.39,19-.57,10.87,1.91,13.65,32.26,23.25,32.26,23.25l-26.94-22a3.12,3.12,0,0,1-1.05-3.37,1.36,1.36,0,0,1,2-1c2.67.93,29.12,22.57,29.12,22.57l-26-24.12a2.19,2.19,0,0,1-.62-2.32c.29-.8,1-1.52,2.86-1.27s-16.33-14.07-34.41-30.11C424.76,25.64,403.29,5.05,403.29,5.05Z"/><circle class="cls-6" cx="401.84" cy="5.48" r="1.18"/><path class="cls-7" d="M505.17,170.89s12.07-22.89,12.87-46c.54-15.67-5.9-39.11-17-42.48a9.27,9.27,0,0,0-1.29-.29C489.42,80.59,485,91.4,484.21,94.42a.39.39,0,0,0,.57.44,33.27,33.27,0,0,0,12.9-15.3c4.74-11.28-18.91,10.47-16.59,13s24.08-9,18.56-8-16,18-16.38,19.63-1.59,7,1.24,9.23,8.4-1.7,10.39,3.48-2.18,10-2.18,10"/><text class="cls-8" transform="translate(123.58 238.21)"><tspan class="cls-9">F</tspan><tspan x="17.67" y="0">risk Piz</tspan><tspan class="cls-10" x="118.4" y="0">z</tspan><tspan class="cls-11" x="134.52" y="0">a og </tspan><tspan class="cls-12" x="204.07" y="0">P</tspan><tspan x="224.52" y="0">a</tspan><tspan class="cls-10" x="241.63" y="0">s</tspan><tspan x="257.1" y="0">ta</tspan></text></svg>
