<svg id="Layer_1" data-name="Layer 1" xmlns="http://www.w3.org/2000/svg" width="187.56mm" height="84.59mm" viewBox="0 0 531.67 239.79"><defs><style>.cls-1{fill:#af1917;}.cls-2{font-size:100px;font-family:DancingScript-Regular, Dancing Script;}.cls-2,.cls-6,.cls-8{fill:#1d1d1b;}.cls-3{letter-spacing:-0.09em;}.cls-4{letter-spacing:0em;}.cls-5{letter-spacing:-0.03em;}.cls-7{fill:none;stroke:#1d1d1b;stroke-miterlimit:10;stroke-width:1.8px;}.cls-8{font-size:24.2px;font-family:NunitoSans-ExtraLight, Nunito Sans;font-weight:200;}.cls-9{letter-spacing:-0.01em;}.cls-10{letter-spacing:0em;}.cls-11{letter-spacing:0em;}.cls-12{letter-spacing:-0.01em;}.cls-13{letter-spacing:-0.01em;}</style></defs><title>logo4</title><rect class="cls-1" x="2.88" y="195.2" width="523.45" height="5.3"/><text class="cls-2" transform="translate(26.07 182.16)"><tspan class="cls-3">T</tspan><tspan class="cls-4" x="40.4" y="0">aste of </tspan><tspan class="cls-5" x="299.99" y="0">I</tspan><tspan x="343.19" y="0">taly</tspan></text><path class="cls-6" d="M400.82,7s-3.34-7.2,9.12,1.69,21.7,23.84,39.42,39.05,20.57,16.63,20.57,16.63,10.78-1.53,13.77.69,26,30.07,26,30.07L485.46,70.23a3.14,3.14,0,0,0-3.45-.75,1.37,1.37,0,0,0-.8,2.06c1.16,2.57,25.06,27,25.06,27L479.94,74.75a2.2,2.2,0,0,0-2.38-.4c-.76.35-1.42,1.16-1,3s-15.47-15-33-31.6C423.24,26.55,400.82,7,400.82,7Z"/><path class="cls-6" d="M402.47,5.05S395,2.36,405,14s25.67,19.49,42.39,35.8,18.39,19,18.39,19-.57,10.87,1.92,13.65,32.25,23.25,32.25,23.25L473,83.73a3.13,3.13,0,0,1-1.05-3.37,1.36,1.36,0,0,1,2-1C476.56,80.31,503,102,503,102L477,77.83a2.17,2.17,0,0,1-.61-2.32c.28-.8,1-1.52,2.85-1.27s-16.33-14.07-34.41-30.11C423.94,25.64,402.47,5.05,402.47,5.05Z"/><circle class="cls-6" cx="401.02" cy="5.48" r="1.18"/><path class="cls-7" d="M504.35,170.89s12.07-22.89,12.87-46c.55-15.67-5.9-39.11-17-42.48a9.1,9.1,0,0,0-1.3-.29c-10.3-1.48-14.71,9.33-15.52,12.35a.39.39,0,0,0,.58.44,33.32,33.32,0,0,0,12.89-15.3C501.6,68.28,478,90,480.27,92.52s24.09-9,18.56-8-16,18-16.37,19.63-1.6,7,1.23,9.23,8.4-1.7,10.39,3.48-2.17,10-2.17,10"/><text class="cls-8" transform="translate(161.08 231.74)"><tspan class="cls-9">F</tspan><tspan x="13.02" y="0">risk Piz</tspan><tspan class="cls-10" x="87.25" y="0">z</tspan><tspan class="cls-11" x="99.13" y="0">a og </tspan><tspan class="cls-12" x="150.38" y="0">P</tspan><tspan x="165.45" y="0">a</tspan><tspan class="cls-13" x="178.06" y="0">s</tspan><tspan x="189.45" y="0">ta</tspan></text></svg>
