<svg id="Layer_1" data-name="Layer 1" xmlns="http://www.w3.org/2000/svg" width="195.58mm" height="91.35mm" viewBox="0 0 554.41 258.95"><defs><style>.cls-1,.cls-6{font-size:100px;font-family:DancingScript-Regular, Dancing Script;}.cls-1{fill:#1d1d1b;}.cls-2{letter-spacing:-0.09em;}.cls-3{letter-spacing:0em;}.cls-4{letter-spacing:-0.03em;}.cls-5{fill:#af1917;}.cls-6,.cls-7{fill:#fff;}.cls-8{fill:none;stroke:#fff;stroke-miterlimit:10;stroke-width:1.8px;}</style></defs><title>Artboard 5</title><text class="cls-1" transform="translate(64.34 -84.01)"><tspan class="cls-2">T</tspan><tspan class="cls-3" x="40.4" y="0">aste of </tspan><tspan class="cls-4" x="299.99" y="0">I</tspan><tspan x="343.19" y="0">taly</tspan></text><rect class="cls-5" x="17.84" y="224.4" width="523.45" height="5.3"/><text class="cls-6" transform="translate(41.02 211.36)"><tspan class="cls-2">T</tspan><tspan class="cls-3" x="40.4" y="0">aste of </tspan><tspan class="cls-4" x="299.99" y="0">I</tspan><tspan x="343.19" y="0">taly</tspan></text><path class="cls-7" d="M415.78,36.19s-3.35-7.2,9.12,1.69,21.69,23.84,39.42,39.05,20.57,16.63,20.57,16.63,10.77-1.53,13.76.7,26,30.06,26,30.06L500.41,99.43a3.14,3.14,0,0,0-3.45-.74,1.36,1.36,0,0,0-.8,2c1.16,2.57,25.06,27,25.06,27L494.89,104a2.19,2.19,0,0,0-2.37-.4c-.77.35-1.42,1.16-1,3s-15.47-15-33-31.61C438.19,55.76,415.78,36.19,415.78,36.19Z"/><path class="cls-7" d="M417.42,34.25s-7.47-2.69,2.49,8.93,25.67,19.49,42.4,35.8,18.38,19,18.38,19-.57,10.87,1.92,13.65,32.25,23.25,32.25,23.25l-26.94-21.95a3.17,3.17,0,0,1-1.05-3.38,1.38,1.38,0,0,1,2-1c2.66.93,29.12,22.57,29.12,22.57l-26-24.12a2.17,2.17,0,0,1-.62-2.32c.29-.79,1-1.52,2.86-1.27s-16.33-14.07-34.42-30.11C438.9,54.84,417.42,34.25,417.42,34.25Z"/><circle class="cls-7" cx="415.97" cy="34.68" r="1.18"/><path class="cls-8" d="M519.3,200.09S531.38,177.2,532.18,154c.54-15.67-5.91-39.11-17-42.48a9.27,9.27,0,0,0-1.29-.29c-10.31-1.48-14.71,9.34-15.52,12.35a.39.39,0,0,0,.57.44,33.32,33.32,0,0,0,12.89-15.3c4.75-11.28-18.9,10.47-16.58,13s24.08-9,18.55-8-16,18-16.37,19.63-1.6,7.05,1.23,9.23S507,140.84,509,146s-2.17,10-2.17,10"/></svg>
