<svg id="Layer_1" data-name="Layer 1" xmlns="http://www.w3.org/2000/svg" width="194.82mm" height="81.31mm" viewBox="0 0 552.24 230.5"><defs><style>.cls-1{fill:#af1917;}.cls-2{fill:#1d1d1b;}</style></defs><title>Artboard 1</title><rect class="cls-1" x="12.1" y="201.59" width="523.45" height="5.3"/><path class="cls-2" d="M47.89,195.39a7.21,7.21,0,0,1-1.8-5.25,22.94,22.94,0,0,1,.95-6q.95-3.45,2.75-8.55,4.2-12.09,9.9-27t10.5-25.2q-10.8.21-16.2.55a115.93,115.93,0,0,0-11.8,1.45q.39-4.7,6.8-6.75t17.6-2a184.91,184.91,0,0,1,19.3,1.2q3.3.41,6.7.7t6.2.3a16.61,16.61,0,0,1-7.3,3.75,43.6,43.6,0,0,1-9.8,1l-7.1-.1A455.29,455.29,0,0,0,58.89,171l-.9,3.3q-2.31,8.4-3.2,12.55a38.45,38.45,0,0,0-.9,8.15,16.57,16.57,0,0,0,.1,2.2C51.12,197.24,49.09,196.63,47.89,195.39Z"/><path class="cls-2" d="M75.14,191.09a8.54,8.54,0,0,1-2-6.15q0-5.9,4.25-13.2a43.2,43.2,0,0,1,10.75-12.4q6.5-5.1,12.7-5.1a10,10,0,0,1,6.5,2.1,6.64,6.64,0,0,1,2.6,5.4,3.91,3.91,0,0,1-1.3,3.3,5.77,5.77,0,0,1-3.6,1,13.15,13.15,0,0,0,.5-3.5,6.46,6.46,0,0,0-1.2-4,4.4,4.4,0,0,0-3.7-1.55q-4.41,0-9.25,4.9a42.33,42.33,0,0,0-8.1,11.7Q80,180.35,80,185.24q0,3.9,2.7,3.9,4,0,9.4-6.35a184.12,184.12,0,0,0,11.6-15.45,9.82,9.82,0,0,1,2.65.85q1.35.66,1.35,1.65a6.36,6.36,0,0,1-1,2.55c-.64,1.17-1,1.85-1.15,2.05a50.77,50.77,0,0,0-2.7,5.15,10.27,10.27,0,0,0-1,4.15,5.56,5.56,0,0,0,.85,3,2.8,2.8,0,0,0,2.55,1.35q2.89,0,7.3-4.15a50.6,50.6,0,0,0,8.7-11.65l1,1a36.7,36.7,0,0,1-5.4,9.45,27.07,27.07,0,0,1-7.1,6.45,14.1,14.1,0,0,1-7.3,2.3,6.81,6.81,0,0,1-5.35-2,7.08,7.08,0,0,1-1.85-5,16,16,0,0,1,.3-2.9,48.18,48.18,0,0,1-8,8.8,11.4,11.4,0,0,1-7.05,2.8A7,7,0,0,1,75.14,191.09Z"/><path class="cls-2" d="M120.29,189.74a14.64,14.64,0,0,1-3-9.2c0-2.66.46-4.55,1.4-5.65a8.29,8.29,0,0,1,3-2.35,8.31,8.31,0,0,0,2-1,57.76,57.76,0,0,0,9.89-14.5v-1.2a9.16,9.16,0,0,1,1.16-5.1,3.29,3.29,0,0,1,2.75-1.7,1.81,1.81,0,0,1,1.2.35,1.22,1.22,0,0,1,.39,1,8.73,8.73,0,0,1-.29,1.65,11.31,11.31,0,0,0-.3,2.75A17.71,17.71,0,0,0,139,159c.36,1.5,1,3.45,1.75,5.85q1.4,4.31,2.15,7.5a28.43,28.43,0,0,1,.75,6.5,18.85,18.85,0,0,1-.61,4.9,13.66,13.66,0,0,0,6.71-3.25,26.71,26.71,0,0,0,5.9-8.05l.89,1a17.6,17.6,0,0,1-5.5,8.2,17.06,17.06,0,0,1-8.5,3.7,11.76,11.76,0,0,1-4.89,6.2,14.73,14.73,0,0,1-7.9,2.1Q123.28,193.64,120.29,189.74Zm16-4.5a18.68,18.68,0,0,1-7.3-3.15,17.59,17.59,0,0,1-5-5.15c-1.47.07-2.2,1.24-2.2,3.5a10.81,10.81,0,0,0,2.25,6.75,7.11,7.11,0,0,0,6,2.95Q134.58,190.14,136.29,185.24Zm.9-6.3a36.8,36.8,0,0,0-.5-6q-.51-3-1.5-6.9c-.61-2.66-1-4.4-1.11-5.2a69.41,69.41,0,0,1-9.69,13,17.33,17.33,0,0,0,4.85,6.2,17.05,17.05,0,0,0,7.55,3.6A32,32,0,0,0,137.19,178.94Z"/><path class="cls-2" d="M153.38,183.24a46.69,46.69,0,0,1,1.55-10.65,116.09,116.09,0,0,1,4.25-13.45,24.15,24.15,0,0,1-3.6-.8v-1.8c2.4.27,3.87.4,4.4.4a127.15,127.15,0,0,1,9.45-19.75q5.06-8.34,7.95-8.35a2.14,2.14,0,0,1,2.1,2.2,9.44,9.44,0,0,1-1.25,3.8q-1.24,2.5-4.25,7.7-.49,1-3.1,5.55t-4.7,9.15h3.7q8.31,0,14.3-.6v1.8a168.15,168.15,0,0,1-17.6,1.2h-1.5q-5.49,12.6-5.5,21.8c0,2.87.44,4.92,1.3,6.15a4.87,4.87,0,0,0,4.3,1.85q5.1,0,10.1-4.55a40.84,40.84,0,0,0,8.9-12.55l1.3,1a38.86,38.86,0,0,1-10,14.25q-6.3,5.55-13.2,5.55Q153.39,193.14,153.38,183.24Z"/><path class="cls-2" d="M184,189.69a11.49,11.49,0,0,1-3.15-8.35q0-5.9,3.9-12.7a39.09,39.09,0,0,1,9.85-11.45q6-4.65,11.65-4.65,6.21,0,6.2,6.1a13.67,13.67,0,0,1-3.7,9.15,28,28,0,0,1-9.5,7,36.17,36.17,0,0,1-11.6,3.3,16.14,16.14,0,0,0-.4,3.6,9.72,9.72,0,0,0,1.8,6q1.8,2.4,6.1,2.4,6.1,0,12.3-5.1a39.88,39.88,0,0,0,10.1-12.6l1.2.9a36,36,0,0,1-11.1,14.3q-7.1,5.4-14.6,5.4Q187.19,192.94,184,189.69ZM197,171.94a32,32,0,0,0,7.85-6.35,11.37,11.37,0,0,0,3.25-7.65,2.76,2.76,0,0,0-.45-1.75,2.07,2.07,0,0,0-1.65-.55c-2.06,0-4.31,1-6.75,3.1a34.65,34.65,0,0,0-6.7,7.9,35.62,35.62,0,0,0-4.35,9.5A52,52,0,0,0,197,171.94Z"/><path class="cls-2" d="M242.48,189.24a10.64,10.64,0,0,1-1.9-6.6,24.41,24.41,0,0,1,1.7-8.6,23.41,23.41,0,0,1,4.4-7.5q2.7-3,5.4-3a5.66,5.66,0,0,1,2.1.5,14.85,14.85,0,0,0-2.9,4.4,52.81,52.81,0,0,0-2.95,7.25,21.46,21.46,0,0,0-1.25,6.25q0,5.7,3.6,5.7,2.1,0,5-2.2a31.44,31.44,0,0,0,5.7-5.8,15.08,15.08,0,0,1-4.35-6,19.76,19.76,0,0,1-1.55-7.7,14.88,14.88,0,0,1,2.65-8.9,8.37,8.37,0,0,1,7.15-3.7c2.53,0,4.32.69,5.35,2a9.2,9.2,0,0,1,1.55,5.65,23.89,23.89,0,0,1-1.85,8.55,47.92,47.92,0,0,1-4.85,9.25,7.68,7.68,0,0,0,3.8,1,12.18,12.18,0,0,0,6-1.75,11,11,0,0,0,4.7-5.45l1.2,1a13.54,13.54,0,0,1-5.4,6.5,13.81,13.81,0,0,1-7.2,2.1,11,11,0,0,1-4.8-1,36.36,36.36,0,0,1-7.65,7.6,13.29,13.29,0,0,1-7.65,2.9Q244.39,191.74,242.48,189.24Zm24.9-20.15a20.35,20.35,0,0,0,1.6-7.45,8.25,8.25,0,0,0-.85-4.2A2.49,2.49,0,0,0,266,156a4.27,4.27,0,0,0-2.85,1.35,10.14,10.14,0,0,0-2.4,3.7,13.72,13.72,0,0,0-1,5.15,20.58,20.58,0,0,0,.85,5.95,13.28,13.28,0,0,0,2.55,4.85A42.86,42.86,0,0,0,267.38,169.09Z"/><path class="cls-2" d="M273,214.59q-1.69-2-1.7-6.85,0-10.5,7.5-33.05a229.12,229.12,0,0,1,17.55-40.35q10.05-17.79,17.75-17.8a2.93,2.93,0,0,1,2.65,1.15,5.94,5.94,0,0,1,.75,3.25q0,5.5-3.9,12.5a71.39,71.39,0,0,1-10.1,13.7,77.53,77.53,0,0,1-12.7,11.2q-.7,1.6-1.9,5a2.6,2.6,0,0,1,1.65,1.15,5.33,5.33,0,0,1,.85,2,84.21,84.21,0,0,0,1.6,8.7,12,12,0,0,0,2.45,5,5.82,5.82,0,0,0,4.65,1.9,7.77,7.77,0,0,0,5.65-2.3,38.19,38.19,0,0,0,5.45-7.5l1.5,1a20.94,20.94,0,0,1-6.1,8.5c-2.47,1.94-4.8,2.9-7,2.9a8.94,8.94,0,0,1-3.75-.9,15,15,0,0,1-3.65-2.4,60.56,60.56,0,0,1-2.3,16.4A46.12,46.12,0,0,1,284,211.29q-3.55,5.25-7.25,5.25A5,5,0,0,1,273,214.59Zm10.65-8a64.36,64.36,0,0,0,4.2-12,50.19,50.19,0,0,0,1.75-12.05,19.1,19.1,0,0,0-.75-5.5,38.44,38.44,0,0,0-2.65-6.2q-3.9,11.5-6.3,21.3t-2.4,14.8a10,10,0,0,0,.5,3.55c.33.84.8,1.25,1.4,1.25Q281.18,211.74,283.63,206.64Zm19.7-64.1a82.4,82.4,0,0,0,7.55-10.95q2.7-4.84,2.7-7a1.24,1.24,0,0,0-1.4-1.4q-3.71,0-9,8.65a152.67,152.67,0,0,0-10.8,22.35A101.36,101.36,0,0,0,303.33,142.54Z"/><path class="cls-2" d="M336.08,190.84q4.1-1.5,11.7-1.5a103.33,103.33,0,0,0,5.8-17q2.81-10.59,6.6-27.2.49-2.19,2.45-10.55A112.57,112.57,0,0,1,366,122.44q-7.91.21-12.45.6c-3,.27-6.39.74-10,1.4.47-2.6,2.31-4.53,5.55-5.8s8.18-1.9,14.85-1.9q6.5,0,13.85.7t12.35,1.4a10.48,10.48,0,0,1-4.55,2.8,18.57,18.57,0,0,1-5.15.7c-5.2,0-8.84,0-10.9.1l-.7,3.6q-6.21,34.41-9.2,46.3a61.3,61.3,0,0,1-3.7,11,14.41,14.41,0,0,1-4.7,6.05q4.69.3,9.7.9,7.31.9,12,1-4.31,4.31-11.3,4.3h-4.9q-9.21.11-14.5.35a70.84,70.84,0,0,0-10.7,1.35C331.81,194,333.35,191.84,336.08,190.84Z"/><path class="cls-2" d="M378.08,183.24a46.69,46.69,0,0,1,1.55-10.65,114.18,114.18,0,0,1,4.25-13.45,24.15,24.15,0,0,1-3.6-.8v-1.8c2.4.27,3.87.4,4.4.4a125.36,125.36,0,0,1,9.45-19.75q5.06-8.34,7.95-8.35a2.14,2.14,0,0,1,2.1,2.2,9.61,9.61,0,0,1-1.25,3.8q-1.24,2.5-4.25,7.7c-.33.67-1.37,2.52-3.1,5.55s-3.3,6.09-4.7,9.15h3.7q8.3,0,14.3-.6v1.8a168.32,168.32,0,0,1-17.6,1.2h-1.5q-5.5,12.6-5.5,21.8,0,4.31,1.3,6.15a4.87,4.87,0,0,0,4.3,1.85q5.1,0,10.1-4.55a41,41,0,0,0,8.9-12.55l1.3,1a39,39,0,0,1-10,14.25q-6.3,5.55-13.2,5.55Q378.09,193.14,378.08,183.24Z"/><path class="cls-2" d="M406.43,191.09a8.54,8.54,0,0,1-2.05-6.15q0-5.9,4.25-13.2a43.2,43.2,0,0,1,10.75-12.4q6.5-5.1,12.7-5.1a10,10,0,0,1,6.5,2.1,6.64,6.64,0,0,1,2.6,5.4,3.88,3.88,0,0,1-1.3,3.3,5.77,5.77,0,0,1-3.6,1,13.15,13.15,0,0,0,.5-3.5,6.46,6.46,0,0,0-1.2-4,4.4,4.4,0,0,0-3.7-1.55q-4.39,0-9.25,4.9a42.76,42.76,0,0,0-8.1,11.7q-3.25,6.81-3.25,11.7,0,3.9,2.7,3.9,4,0,9.4-6.35A184.12,184.12,0,0,0,435,167.34a9.82,9.82,0,0,1,2.65.85q1.35.66,1.35,1.65a6.36,6.36,0,0,1-1,2.55c-.63,1.17-1,1.85-1.15,2.05a52.89,52.89,0,0,0-2.7,5.15,10.27,10.27,0,0,0-1,4.15,5.56,5.56,0,0,0,.85,3,2.81,2.81,0,0,0,2.55,1.35c1.93,0,4.37-1.38,7.3-4.15a50.6,50.6,0,0,0,8.7-11.65l1,1a36.7,36.7,0,0,1-5.4,9.45,27.07,27.07,0,0,1-7.1,6.45,14.1,14.1,0,0,1-7.3,2.3,6.82,6.82,0,0,1-5.35-2,7.12,7.12,0,0,1-1.85-5,16,16,0,0,1,.3-2.9,47.82,47.82,0,0,1-8.05,8.8,11.4,11.4,0,0,1-7.05,2.8A7,7,0,0,1,406.43,191.09Z"/><path class="cls-2" d="M452.83,188.74a12.87,12.87,0,0,1-1.95-7.5q0-9,6.2-24.45a182.07,182.07,0,0,1,13.85-27.85q7.65-12.39,11.05-12.4c.93,0,1.71.82,2.35,2.45a13.72,13.72,0,0,1,.95,5q0,4.61-3.75,13.55a109.92,109.92,0,0,1-9.85,18.15,67.43,67.43,0,0,1-13,14.9,46.92,46.92,0,0,0-1.3,10.1q0,7.71,4.4,7.7,3.69,0,7.55-4.7a51.29,51.29,0,0,0,6.85-11.3l1.5.8q-8.61,18.41-18.8,18.4C456.14,191.54,454.13,190.61,452.83,188.74Zm17.5-35.45a118,118,0,0,0,8.55-16q3.3-7.65,3.3-11c0-1.06-.24-1.6-.7-1.6q-1.41,0-5.75,6.85a146.76,146.76,0,0,0-9,16.75,131.28,131.28,0,0,0-7.2,18.9A78.93,78.93,0,0,0,470.33,153.29Z"/><path class="cls-2" d="M474,215.14a4.65,4.65,0,0,1-1.8-3.9,10.69,10.69,0,0,1,2.55-7.05,25,25,0,0,1,6.25-5.3q3.69-2.25,10.6-5.75a149,149,0,0,0,5.6-18.3,44.71,44.71,0,0,1-7.2,9.3q-3.6,3.41-7.4,3.4a8.23,8.23,0,0,1-5.6-2.1,7.55,7.55,0,0,1-2.4-6,30.79,30.79,0,0,1,1.6-8.8,50.34,50.34,0,0,1,3.7-9.1c1.4-2.6,2.56-3.9,3.5-3.9a7.55,7.55,0,0,1,2.65.75c1.16.5,1.75,1,1.75,1.55a42.42,42.42,0,0,0-4.3,9.35,32.49,32.49,0,0,0-2.3,10.25q0,4,3.6,4c1.8,0,3.91-1.23,6.35-3.7a50,50,0,0,0,6.95-9.1,44.82,44.82,0,0,0,1-4.6,8.35,8.35,0,0,1,1.65-3.5,4.14,4.14,0,0,1,3.45-1.6,8.81,8.81,0,0,1,2.1.3q0,2.7-2.25,11.1a163.28,163.28,0,0,1-5.55,16.9,29.07,29.07,0,0,0,9.4-6.25,31.46,31.46,0,0,0,7.1-10.75l1.3,1q-3.71,11.7-18.9,18.7a89,89,0,0,1-9.25,17.65q-4.86,6.85-9.65,6.85A7.07,7.07,0,0,1,474,215.14Zm7.1-3.65a29.4,29.4,0,0,0,4.5-5.85,68.29,68.29,0,0,0,5-10.1q-5.31,2.81-8.35,4.75a19.75,19.75,0,0,0-5,4.45,8.9,8.9,0,0,0-2,5.6,3.42,3.42,0,0,0,.7,2,2.28,2.28,0,0,0,2,1C478.71,213.34,479.74,212.73,481.08,211.49Z"/><path class="cls-2" d="M410,13.38s-3.34-7.2,9.12,1.69,21.69,23.84,39.42,39.05,20.57,16.63,20.57,16.63,10.78-1.54,13.76.69,26,30.07,26,30.07L494.67,76.62a3.14,3.14,0,0,0-3.45-.75,1.37,1.37,0,0,0-.8,2.06c1.16,2.57,25.07,27,25.07,27L489.15,81.14a2.19,2.19,0,0,0-2.37-.41c-.76.36-1.42,1.17-1,3s-15.47-15-33-31.61C432.45,32.94,410,13.38,410,13.38Z"/><path class="cls-2" d="M411.68,11.43s-7.47-2.69,2.49,8.93,25.67,19.5,42.4,35.8,18.39,19,18.39,19-.57,10.87,1.91,13.64,32.25,23.25,32.25,23.25L482.18,90.12a3.16,3.16,0,0,1-1.05-3.37,1.37,1.37,0,0,1,2-1c2.66.93,29.12,22.57,29.12,22.57l-26-24.12a2.18,2.18,0,0,1-.62-2.33c.29-.79,1-1.52,2.86-1.26S472.11,66.55,454,50.52C433.16,32,411.68,11.43,411.68,11.43Z"/><circle class="cls-2" cx="410.23" cy="11.87" r="1.18"/><path class="cls-2" d="M514.36,177.7l-1.59-.84c.12-.23,12-23,12.77-45.67.51-14.77-5.62-38.32-16.38-41.58a7.77,7.77,0,0,0-1.16-.26,11.32,11.32,0,0,0-2.51-.1,34.16,34.16,0,0,1-2.24,3.59A10.36,10.36,0,0,1,507.89,90c.42-.07,1.54-.27,1.88.63s-.53,1.65-2.37,2.8c-.6.37-2.42,1.4-4.71,2.54-4.75,5.28-9.87,13.76-10.15,14.77-.48,1.91-1.35,6.55.91,8.3.87.66,2.25.58,3.71.49,2.47-.15,5.54-.35,7,3.37,2.16,5.62-2.14,10.73-2.33,10.94l-1.36-1.17c0-.05,3.78-4.52,2-9.12-.91-2.37-2.56-2.39-5.18-2.23-1.73.11-3.52.22-4.92-.86-3-2.31-2.26-7.36-1.55-10.17.27-1.07,3.49-6.6,7.33-11.62a26.58,26.58,0,0,1-4.5,3.38,1.3,1.3,0,0,1-1.44-.1,1.28,1.28,0,0,1-.45-1.36c.05-.18.1-.37.16-.56-1.41.22-2.51.11-3.07-.49-.92-1-.28-2.73,2.08-5.65,2.8-3.46,12.91-13.6,15.91-11.81,1.49.89.47,3.32.08,4.24-.16.38-.32.75-.49,1.12a15.18,15.18,0,0,1,1.85.15,9.71,9.71,0,0,1,1.42.31c11.75,3.56,18.2,27.66,17.66,43.38C526.54,154.36,514.48,177.47,514.36,177.7ZM494,99.54l-.06.15.34-.23Zm-3.76-1.21a5.49,5.49,0,0,0,2.38-.27c1.8-4.29,5.61-9.57,11.73-10.5.32-.63.62-1.28.9-2a5.51,5.51,0,0,0,.57-2c-.79.06-3.31,1.41-7.44,5.12C493.37,93.23,490.36,97.23,490.23,98.33Zm13-8.67c-4.16,1.23-6.76,4.84-8.21,7.67.93-.32,2-.74,3.23-1.26A34.24,34.24,0,0,0,503.2,89.66Z"/></svg>
