<svg id="Layer_1" data-name="Layer 1" xmlns="http://www.w3.org/2000/svg" width="895.75mm" height="496.35mm" viewBox="0 0 2539.14 1406.97"><defs><style>.cls-1{font-size:100px;font-family:DancingScript-Regular, Dancing Script;}.cls-1,.cls-5{fill:#1d1d1b;}.cls-2{letter-spacing:-0.09em;}.cls-3{letter-spacing:0em;}.cls-4{letter-spacing:-0.03em;}.cls-6{fill:none;stroke:#1d1d1b;stroke-miterlimit:10;stroke-width:1.8px;}.cls-7{fill:#b83939;}.cls-8{fill:#517f3f;}.cls-9{fill:#efefef;}.cls-10{fill:#ebd6b9;}.cls-11{fill:#af1917;}</style></defs><title>logo</title><text class="cls-1" transform="translate(0 1246.83)"><tspan class="cls-2">T</tspan><tspan class="cls-3" x="40.4" y="0">aste of </tspan><tspan class="cls-4" x="299.99" y="0">I</tspan><tspan x="343.19" y="0">taly</tspan></text><path class="cls-5" d="M108,1010.56S97.23,1036.26,90.72,983s10.34-112.63,7.74-194.54-5.68-92.64-5.68-92.64S63.29,671.5,62,658.49s16.2-138.56,16.2-138.56l-7,121.73a11,11,0,0,0,6.23,10.71c2.67,1.22,5.52,1.19,7.23-2.79,3.9-9.1,10.53-128.84,10.53-128.84L96,645.25a7.67,7.67,0,0,0,4.57,7.11c2.73,1.13,6.37.93,10-4.4,3.4-5-2.24,75.61-3.57,160.4C105.51,906.19,108,1010.56,108,1010.56Z" transform="translate(-28.57 -26.59)"/><path class="cls-5" d="M99,1010.91s10.73,25.71,17.23-27.6-10.33-112.63-7.73-194.55,5.68-92.64,5.68-92.64,29.49-24.27,30.79-37.27-16.21-138.57-16.21-138.57l7,121.74a11,11,0,0,1-6.24,10.71c-2.66,1.22-5.51,1.19-7.22-2.8-3.9-9.1-10.53-128.84-10.53-128.84L111,645.61a7.69,7.69,0,0,1-4.57,7.11c-2.73,1.13-6.37.92-10-4.41-3.4-4.95,2.24,75.62,3.57,160.41C101.46,906.55,99,1010.91,99,1010.91Z" transform="translate(-28.57 -26.59)"/><circle class="cls-5" cx="75.01" cy="987.04" r="4.14"/><path class="cls-5" d="M403.32,1098.25s-3.34-7.2,9.12,1.69,21.7,23.84,39.42,39,20.57,16.63,20.57,16.63,10.78-1.53,13.77.7,26,30.06,26,30.06L488,1161.49a3.14,3.14,0,0,0-3.45-.74,1.37,1.37,0,0,0-.81,2c1.17,2.57,25.07,27,25.07,27L482.44,1166a2.2,2.2,0,0,0-2.38-.4c-.76.35-1.42,1.16-1,3s-15.47-15-33.05-31.61C425.74,1117.82,403.32,1098.25,403.32,1098.25Z" transform="translate(-28.57 -26.59)"/><path class="cls-5" d="M405,1096.31s-7.47-2.69,2.49,8.93,25.67,19.49,42.39,35.8,18.39,19,18.39,19-.57,10.87,1.92,13.65S502.41,1197,502.41,1197l-26.94-22a3.15,3.15,0,0,1-1.05-3.38,1.37,1.37,0,0,1,2-1c2.67.93,29.12,22.57,29.12,22.57l-26-24.12a2.17,2.17,0,0,1-.61-2.32c.28-.79,1-1.52,2.85-1.27s-16.33-14.07-34.41-30.11C426.44,1116.9,405,1096.31,405,1096.31Z" transform="translate(-28.57 -26.59)"/><circle class="cls-5" cx="374.95" cy="1070.15" r="1.18"/><path class="cls-6" d="M506.85,1262.15s12.07-22.89,12.87-46.05c.54-15.67-5.9-39.11-17-42.48a9.1,9.1,0,0,0-1.3-.29c-10.3-1.48-14.71,9.34-15.52,12.35a.39.39,0,0,0,.58.44,33.32,33.32,0,0,0,12.89-15.3c4.74-11.28-18.91,10.47-16.59,13s24.08-9,18.56-8-16,18-16.37,19.63-1.6,7.05,1.23,9.23,8.4-1.7,10.39,3.48-2.18,10-2.18,10" transform="translate(-28.57 -26.59)"/><path class="cls-7" d="M2169.81,910c110.15,0,204.1-39.59,240.62-95.19H1929.19C1965.71,870.43,2059.66,910,2169.81,910Z" transform="translate(-28.57 -26.59)"/><path class="cls-8" d="M2169.81,616.67c-112.09,0-207.4,41-242.5,98.14h485C2377.21,657.66,2281.9,616.67,2169.81,616.67Z" transform="translate(-28.57 -26.59)"/><path class="cls-9" d="M2412.3,714.81h-485c-9.32,15.19-14.41,31.52-14.41,48.53,0,18.12,5.77,35.47,16.29,51.49h481.24c10.52-16,16.29-33.37,16.29-51.49C2426.72,746.33,2421.63,730,2412.3,714.81Z" transform="translate(-28.57 -26.59)"/><path class="cls-10" d="M1757.3,549.8V989.5h810.41V549.8Zm700,364.9H1871.58V814.83h-.26V715.08h-.11v-100H2457v99.75h.11v99.87h.25Z" transform="translate(-28.57 -26.59)"/><path class="cls-10" d="M2457.07,814.83h-46.64C2373.91,870.43,2280,910,2169.81,910s-204.1-39.59-240.62-95.19h-57.61V914.7h585.74v-100h-.25Z" transform="translate(-28.57 -26.59)"/><path class="cls-10" d="M1927.31,714.81c35.1-57.15,130.41-98.14,242.5-98.14s207.4,41,242.49,98.14H2457V615.06H1871.21v100h.11v-.27Z" transform="translate(-28.57 -26.59)"/><path class="cls-10" d="M1912.9,763.34c0-17,5.09-33.34,14.41-48.53h-56v100h57.87C1918.67,798.81,1912.9,781.46,1912.9,763.34Z" transform="translate(-28.57 -26.59)"/><path class="cls-10" d="M2426.72,763.34c0,18.12-5.77,35.47-16.29,51.49h46.64v-100H2412.3C2421.63,730,2426.72,746.33,2426.72,763.34Z" transform="translate(-28.57 -26.59)"/><rect class="cls-11" x="834.47" y="890.61" width="523.45" height="5.3"/><text class="cls-1" transform="translate(857.66 877.57)"><tspan class="cls-2">T</tspan><tspan class="cls-3" x="40.4" y="0">aste of </tspan><tspan class="cls-4" x="299.99" y="0">I</tspan><tspan x="343.19" y="0">taly</tspan></text><path class="cls-5" d="M1261,729s-3.34-7.2,9.12,1.69,21.69,23.84,39.42,39,20.57,16.63,20.57,16.63,10.78-1.54,13.76.69,26,30.07,26,30.07l-24.25-24.89a3.14,3.14,0,0,0-3.45-.75,1.37,1.37,0,0,0-.81,2.06c1.17,2.57,25.07,27,25.07,27l-26.34-23.79a2.19,2.19,0,0,0-2.37-.41c-.76.36-1.42,1.17-1,3s-15.47-15-33-31.61C1283.4,748.56,1261,729,1261,729Z" transform="translate(-28.57 -26.59)"/><path class="cls-5" d="M1262.63,727.05s-7.47-2.69,2.49,8.93,25.67,19.5,42.39,35.8,18.39,19,18.39,19-.57,10.87,1.91,13.64,32.26,23.25,32.26,23.25l-26.94-22a3.12,3.12,0,0,1-1.05-3.37,1.36,1.36,0,0,1,2-1c2.67.93,29.12,22.57,29.12,22.57l-26-24.12a2.2,2.2,0,0,1-.62-2.33c.29-.79,1-1.52,2.86-1.26s-16.33-14.08-34.41-30.11C1284.1,747.64,1262.63,727.05,1262.63,727.05Z" transform="translate(-28.57 -26.59)"/><circle class="cls-5" cx="1232.6" cy="700.9" r="1.18"/><path class="cls-6" d="M1364.51,892.9s12.07-22.89,12.87-46.06c.54-15.66-5.9-39.11-17-42.47a8,8,0,0,0-1.29-.29c-10.31-1.49-14.71,9.33-15.52,12.34a.39.39,0,0,0,.57.45,33.32,33.32,0,0,0,12.9-15.3c4.74-11.29-18.91,10.46-16.59,12.95s24.08-9,18.56-8-16,18-16.38,19.63-1.6,7,1.24,9.24,8.4-1.7,10.39,3.48-2.18,10-2.18,10" transform="translate(-28.57 -26.59)"/><path d="M219,528.2a4.3,4.3,0,0,0,0,.62l3.58,314.94s.64,24.79,2.3,68.28c.78,20.07,4,29.41,5.24,59.44,1.22,28.57-6.38,40.86-10.57,45.41a4.35,4.35,0,0,1-5.78.62c-13.14-9.66-12.69-46.18-12.69-46.18l8.62-177.45a2.45,2.45,0,0,1,0-.27c.27-2.68,4.11-45.6-28-46-29.7-.38-1.14-151.21,6.68-182.59,1-3.88.92-3.2,4-11.21C199,536.75,222.71,498,219,528.2Z" transform="translate(-28.57 -26.59)"/><path d="M811.1,120.42a8.3,8.3,0,0,1-4.68,8c-2,.91-4.14.89-5.42-2.1-2.93-6.83-7.91-96.72-7.91-96.72l-.59,93.47a6.62,6.62,0,0,1-.28,1.78c-2.75,4-5.49,4.14-7.53,3.29a4.51,4.51,0,0,1-.44-.22,9.22,9.22,0,0,1-2.11-2,6.1,6.1,0,0,1-.88-3.11l-.59-93.47s-5,89.88-7.91,96.72c-1.28,3-3.42,3-5.42,2.09a8.28,8.28,0,0,1-4.69-8l5.24-91.38s-13.14,94.26-12.16,104,23.11,28,23.11,28,2.31,8,4.26,69.54-10.68,106-5.8,146c2.14,17.55,4.89,23.69,7.3,25a3.07,3.07,0,0,0,4.27.41c2.48-1,5.36-7,7.59-25.19,4.88-40-7.76-84.55-5.81-146S794.91,161,794.91,161s22.14-18.22,23.12-28S805.86,29,805.86,29Z" transform="translate(-28.57 -26.59)"/><path d="M881.92,367.73c-1-22.53-3.35-29.55-3.93-44.61-1.26-32.65-1.74-51.26-1.74-51.26L873.57,35.45a3.59,3.59,0,0,1,0-.47c2.78-22.67-15,6.41-20,19.21-2.34,6-2.31,5.51-3,8.42-5.87,23.56-27.31,136.78-5,137.06,24.13.32,21.24,32.53,21,34.54a1.48,1.48,0,0,0,0,.21l-6.47,133.2s-.34,27.42,9.52,34.67a3.28,3.28,0,0,0,4.35-.46C877.13,398.41,882.83,389.19,881.92,367.73Z" transform="translate(-28.57 -26.59)"/></svg>
